<?xml version="1.0" encoding="UTF-8"?>
<svg version="1.1" xmlns="http://www.w3.org/2000/svg" width="383" height="383">
<path d="M0 0 C126.39 0 252.78 0 383 0 C383 126.39 383 252.78 383 383 C256.61 383 130.22 383 0 383 C0 256.61 0 130.22 0 0 Z " fill="#FEFEFE" transform="translate(0,0)"/>
<path d="M0 0 C2.77621718 0.06986194 5.54759546 0.039085 8.32422256 0.00736713 C11.66562699 -0.0179592 15.00321532 0.04520839 18.34423828 0.10308838 C19.5777301 0.09650711 20.81122192 0.08992584 22.08209229 0.08314514 C27.20697237 0.30726481 30.52194317 0.48462477 34.31625366 4.12942505 C36.35734622 6.91904384 38.10235877 9.74800555 39.82861328 12.73980713 C40.99656127 14.34986442 42.18326341 15.94671536 43.39892578 17.52105713 C43.97779541 18.29006348 44.55666504 19.05906982 45.15307617 19.85137939 C45.74725342 20.63956055 46.34143066 21.4277417 46.95361328 22.23980713 C53.71127602 31.22771041 60.39746884 40.26609795 67.05517578 49.32818604 C68.91453902 51.85665383 70.77736943 54.38253555 72.64111328 56.90777588 C73.26880615 57.75847656 73.89649902 58.60917725 74.54321289 59.48565674 C75.73640933 61.10259635 76.92990966 62.71931177 78.1237793 64.33575439 C79.19507254 65.78834732 80.26242886 67.24385476 81.32519531 68.70269775 C82.32021118 70.05092971 83.33677059 71.38354793 84.375 72.6987915 C87.88603797 77.24803313 87.88603797 77.24803313 87.59521484 79.73858643 C86.2784284 83.17607002 83.8806514 85.92001412 81.64111328 88.80230713 C80.55691578 90.22222061 79.47362269 91.64282501 78.39111328 93.06402588 C77.81619141 93.81603271 77.24126953 94.56803955 76.64892578 95.34283447 C73.43879617 99.56990697 70.29025862 103.84221815 67.14111328 108.11480713 C66.52921143 108.94117676 65.91730957 109.76754639 65.28686523 110.61895752 C64.7192749 111.38844727 64.15168457 112.15793701 63.56689453 112.95074463 C63.06198486 113.63443115 62.5570752 114.31811768 62.03686523 115.02252197 C60.7706702 116.73159103 60.7706702 116.73159103 59.82861328 118.73980713 C59.16861328 118.73980713 58.50861328 118.73980713 57.82861328 118.73980713 C56.59863281 117.34136963 56.59863281 117.34136963 55.21142578 115.36480713 C54.69249756 114.63423096 54.17356934 113.90365479 53.63891602 113.15093994 C53.08276611 112.35526611 52.52661621 111.55959229 51.95361328 110.73980713 C50.78177744 109.08781324 49.60856985 107.43679164 48.43408203 105.78668213 C47.83644043 104.94556885 47.23879883 104.10445557 46.62304688 103.237854 C43.42221881 98.78195295 40.10703582 94.41274581 36.78808594 90.04449463 C34.63392357 87.19730617 32.54896048 84.35055712 30.61376953 81.34918213 C29.08948581 78.66787262 29.08948581 78.66787262 26.82861328 77.73980713 C25.87720571 76.08115853 24.92974484 74.42007063 24.00634766 72.7456665 C21.97679232 69.28902748 19.51568435 66.16590102 17.07861328 62.98980713 C16.01547109 61.58925271 14.95297399 60.18820838 13.89111328 58.78668213 C13.37291016 58.10412354 12.85470703 57.42156494 12.32080078 56.71832275 C9.09317056 52.43875546 5.96150904 48.08900359 2.82861328 43.73980713 C-1.20962312 45.08588593 -2.62984822 47.76612245 -4.98388672 51.11480713 C-5.97295089 52.49278408 -6.96255998 53.87037003 -7.95263672 55.24761963 C-8.47599609 55.98012939 -8.99935547 56.71263916 -9.53857422 57.46734619 C-12.31744737 61.33483292 -15.15329053 65.16010727 -17.98388672 68.98980713 C-19.17809392 70.60945372 -20.37210242 72.22924683 -21.56591797 73.84918213 C-22.16227051 74.65806885 -22.75862305 75.46695557 -23.37304688 76.300354 C-26.30654021 80.27964607 -29.238916 84.25976144 -32.17138672 88.23980713 C-33.33804783 89.82314455 -34.5047145 91.40647788 -35.67138672 92.98980713 C-36.24888672 93.77355713 -36.82638672 94.55730713 -37.42138672 95.36480713 C-53.17138672 116.73980713 -68.92138672 138.11480713 -84.67138672 159.48980713 C-85.24904785 160.27379883 -85.82670898 161.05779053 -86.421875 161.86553955 C-87.58682521 163.44649696 -88.75186406 165.02738904 -89.91699219 166.60821533 C-92.86065652 170.60236541 -95.80270017 174.59769143 -98.74169922 178.59527588 C-99.33724609 179.40480713 -99.93279297 180.21433838 -100.54638672 181.04840088 C-101.6485514 182.546656 -102.75018898 184.04529915 -103.85107422 185.54449463 C-104.94536482 187.03153805 -106.06735407 188.49843994 -107.21044922 189.94830322 C-108.82580618 192.24785396 -109.99381574 194.34701159 -111.22607422 196.84771729 C-113.82934106 201.66264301 -116.45552117 205.78818417 -121.17138672 208.73980713 C-130.12519292 211.2181789 -139.69760022 210.33007354 -148.88195801 209.83843994 C-152.29975506 209.67314515 -155.71947454 209.60135988 -159.14013672 209.52105713 C-165.82218763 209.34556413 -172.49573094 209.07865145 -179.17138672 208.73980713 C-177.95035873 205.59785227 -176.79681532 202.95430222 -174.73779297 200.27886963 C-174.02067139 199.33660522 -174.02067139 199.33660522 -173.2890625 198.37530518 C-172.77585449 197.71184082 -172.26264648 197.04837646 -171.73388672 196.36480713 C-170.63811886 194.92655009 -169.54308216 193.48773575 -168.44873047 192.04840088 C-167.62091064 190.96341309 -167.62091064 190.96341309 -166.77636719 189.85650635 C-164.41321828 186.73991051 -162.1017663 183.58675331 -159.79638672 180.42730713 C-156.2353446 175.55508632 -152.66212832 170.69223161 -149.07666016 165.83795166 C-143.85841262 158.77199223 -138.67476321 151.68378709 -133.54638672 144.55230713 C-129.0030311 138.23555072 -124.37854993 131.98800304 -119.69042969 125.77813721 C-115.95106442 120.81215705 -112.29848027 115.78823465 -108.67138672 110.73980713 C-104.10436009 104.38524154 -99.4668644 98.0917471 -94.75683594 91.84259033 C-89.09582696 84.3269217 -83.52695406 76.74392535 -77.95361328 69.16314697 C-75.02907923 65.18658191 -72.10000486 61.21336475 -69.17138672 57.23980713 C-68.01252154 55.66689858 -66.85366739 54.09398189 -65.69482422 52.52105713 C-63.28429948 49.24953446 -60.87270063 45.97880682 -58.46044922 42.70855713 C-57.23903297 41.05235291 -56.01767797 39.39610352 -54.79638672 37.73980713 C-54.20486816 36.93760742 -53.61334961 36.13540771 -53.00390625 35.30889893 C-50.0020207 31.23478988 -47.01269935 27.15243761 -44.04638672 23.05230713 C-43.45776855 22.29151855 -42.86915039 21.53072998 -42.26269531 20.74688721 C-40.62635236 18.3939995 -39.45791968 16.33054292 -38.23144531 13.78033447 C-29.82770637 -1.99689377 -16.04702655 -0.55385133 0 0 Z " fill="#241B16" transform="translate(190.17138671875,89.26019287109375)"/>
<path d="M0 0 C3.43157707 0.13403322 6.86440065 0.19257524 10.29785156 0.25787354 C17.01073345 0.40065077 23.71805786 0.61770974 30.42675781 0.89263916 C29.1549552 4.17986379 27.92453281 6.83510235 25.73925781 9.60748291 C25.21041992 10.28657715 24.68158203 10.96567139 24.13671875 11.66534424 C23.29028809 12.73691772 23.29028809 12.73691772 22.42675781 13.83013916 C18.23576239 19.21731936 14.11180953 24.62779522 10.17675781 30.20513916 C7.21483383 34.39731921 4.2095588 38.54740428 1.11425781 42.64263916 C-3.21068517 48.37109097 -7.41274336 54.18336414 -11.60644531 60.00836182 C-16.88419268 67.33597631 -22.22046391 74.61972599 -27.57324219 81.89263916 C-25.79606784 86.01527036 -23.02933682 89.41415777 -20.32324219 92.95513916 C-19.23916151 94.38686526 -18.15586138 95.81918262 -17.07324219 97.25201416 C-16.50347656 98.00547119 -15.93371094 98.75892822 -15.34667969 99.53521729 C-12.31063223 103.57102046 -9.31629462 107.63739876 -6.32324219 111.70513916 C-5.42472534 112.92620361 -5.42472534 112.92620361 -4.50805664 114.17193604 C0.89089617 121.51541105 6.25681806 128.88184036 11.58691406 136.27545166 C12.15724365 137.06621094 12.72757324 137.85697021 13.31518555 138.67169189 C14.43916917 140.23054167 15.562427 141.78991513 16.68481445 143.34991455 C17.21067139 144.07944336 17.73652832 144.80897217 18.27832031 145.56060791 C18.79426758 146.27781006 19.31021484 146.99501221 19.84179688 147.73394775 C20.92644378 149.21121946 22.03386722 150.67196241 23.16015625 152.11773682 C23.70961914 152.8233374 24.25908203 153.52893799 24.82519531 154.25592041 C25.3245459 154.88409668 25.82389648 155.51227295 26.33837891 156.15948486 C27.42675781 157.89263916 27.42675781 157.89263916 27.42675781 160.89263916 C28.08675781 160.89263916 28.74675781 160.89263916 29.42675781 160.89263916 C29.42675781 161.55263916 29.42675781 162.21263916 29.42675781 162.89263916 C30.08675781 162.89263916 30.74675781 162.89263916 31.42675781 162.89263916 C31.42675781 163.55263916 31.42675781 164.21263916 31.42675781 164.89263916 C23.9788654 165.33643647 16.53236245 165.67214932 9.07419395 165.87707043 C5.60813635 165.97555629 2.15121789 166.10844526 -1.30957031 166.32598877 C-23.56826067 167.68895882 -23.56826067 167.68895882 -30.18057251 163.07217407 C-34.53918337 158.6722623 -37.55356965 153.67655022 -40.35110474 148.18518066 C-42.08458398 144.93344077 -44.2177022 142.21034572 -46.51074219 139.33013916 C-48.99036489 136.03604185 -51.41514103 132.72081015 -53.76074219 129.33013916 C-57.12937383 124.4712373 -60.62556875 119.71210859 -64.13574219 114.95513916 C-64.7304834 114.1472998 -65.32522461 113.33946045 -65.93798828 112.50714111 C-69.12020905 108.19106931 -72.32335865 103.89253105 -75.55761719 99.61529541 C-76.19884521 98.76121094 -76.84007324 97.90712646 -77.50073242 97.02716064 C-78.73263169 95.38712794 -79.97145696 93.75226877 -81.21801758 92.12335205 C-82.05320923 91.00754761 -82.05320923 91.00754761 -82.90527344 89.86920166 C-83.39745361 89.22031982 -83.88963379 88.57143799 -84.39672852 87.90289307 C-85.80234981 85.50117368 -86.34756126 83.66720316 -86.57324219 80.89263916 C-85.77563477 79.01837158 -85.77563477 79.01837158 -84.46777344 77.24810791 C-83.98493896 76.57956787 -83.50210449 75.91102783 -83.00463867 75.222229 C-82.47040283 74.51533936 -81.93616699 73.80844971 -81.38574219 73.08013916 C-80.84054932 72.33457764 -80.29535645 71.58901611 -79.73364258 70.82086182 C-78.02929182 68.49926236 -76.30385898 66.19470464 -74.57324219 63.89263916 C-73.54424937 62.51138717 -72.51558983 61.12988682 -71.48730469 59.74810791 C-69.4996858 57.08538118 -67.50245566 54.43020308 -65.49902344 51.77935791 C-62.69925977 48.07001699 -59.94143341 44.33144311 -57.19824219 40.58013916 C-56.75673828 39.97685791 -56.31523437 39.37357666 -55.86035156 38.75201416 C-54.93299913 37.4846766 -54.00575633 36.21725882 -53.07861328 34.94976807 C-50.22679193 31.05267973 -47.37031791 27.15904059 -44.51074219 23.26763916 C-43.69887451 22.15908569 -43.69887451 22.15908569 -42.87060547 21.02813721 C-41.74641857 19.49935648 -40.59392711 17.99109491 -39.41796875 16.50177002 C-37.43261152 13.85613151 -37.43261152 13.85613151 -35.95507812 10.44171143 C-28.75405656 -3.60955947 -13.78947794 -0.59575499 0 0 Z " fill="#241C17" transform="translate(341.5732421875,133.10736083984375)"/>
<path d="M0 0 C14.52 0 29.04 0 44 0 C44 14.52 44 29.04 44 44 C29.48 44 14.96 44 0 44 C0 29.48 0 14.96 0 0 Z " fill="#261D19" transform="translate(196,254)"/>
<path d="M0 0 C14.52 0 29.04 0 44 0 C44 14.52 44 29.04 44 44 C29.48 44 14.96 44 0 44 C0 29.48 0 14.96 0 0 Z " fill="#261D19" transform="translate(144,254)"/>
<path d="M0 0 C0.33 0.66 0.66 1.32 1 2 C0.67 2.66 0.34 3.32 0 4 C18.48 4 36.96 4 56 4 C55.67 4.66 55.34 5.32 55 6 C35.86 6 16.72 6 -3 6 C-1 1 -1 1 0 0 Z " fill="#4A4643" transform="translate(14,292)"/>
<path d="M0 0 C1.05923172 0.00888245 2.11846344 0.01776489 3.20979309 0.0269165 C4.41081161 0.02721863 5.61183014 0.02752075 6.84924316 0.02783203 C8.14618607 0.04847717 9.44312897 0.06912231 10.77937317 0.09039307 C12.12029172 0.09785493 13.46122118 0.10354812 14.80215454 0.10754395 C18.32878308 0.12280507 21.85475098 0.16208957 25.38111877 0.20635986 C28.9805762 0.2473031 32.58014055 0.26555284 36.17976379 0.28570557 C43.24058069 0.3285844 50.30094939 0.39684062 57.36140442 0.48101807 C57.36140442 0.81101807 57.36140442 1.14101807 57.36140442 1.48101807 C56.65032028 1.48022247 55.93923615 1.47942688 55.206604 1.47860718 C48.48316275 1.47639321 41.76051002 1.50295343 35.03730679 1.56129646 C31.5812739 1.59028703 28.12591594 1.60840966 24.66975403 1.60113525 C20.69020807 1.59324687 16.71183533 1.63363493 12.73249817 1.67633057 C11.49994797 1.66723663 10.26739777 1.6581427 8.99749756 1.64877319 C1.4003505 1.7667955 1.4003505 1.7667955 -4.97428894 5.53131104 C-5.85351013 6.50471436 -6.73273132 7.47811768 -7.63859558 8.48101807 C-4.04319465 0.73707759 -4.04319465 0.73707759 0 0 Z " fill="#413C39" transform="translate(164.6385955810547,90.51898193359375)"/>
<path d="M0 0 C0.33 0.66 0.66 1.32 1 2 C-0.68988328 5.21077824 -2.6455311 8.23605824 -5 11 C-5.66 11 -6.32 11 -7 11 C-5.22054913 6.95579349 -2.60470327 3.53921513 0 0 Z " fill="#4D4A48" transform="translate(64,224)"/>
<path d="M0 0 C0.66 0.99 1.32 1.98 2 3 C1.360625 3.2475 0.72125 3.495 0.0625 3.75 C-2.19895007 4.79688294 -2.19895007 4.79688294 -2.5625 7.0625 C-2.7790625 8.0215625 -2.7790625 8.0215625 -3 9 C-3.99 9.33 -4.98 9.66 -6 10 C-4.6302836 6.00499382 -2.74277578 3.19990508 0 0 Z " fill="#504945" transform="translate(292,163)"/>
<path d="M0 0 C0.33 0.66 0.66 1.32 1 2 C-1.16798732 7.4770206 -1.16798732 7.4770206 -4.1875 9.375 C-4.785625 9.58125 -5.38375 9.7875 -6 10 C-4.34832443 6.4213696 -2.21713508 3.25179812 0 0 Z " fill="#CFCCC7" transform="translate(368,140)"/>
<path d="M0 0 C0 3.17370278 -0.30933342 4.3794668 -2 7 C-3.98 7.99 -3.98 7.99 -6 9 C-4.02 6.03 -2.04 3.06 0 0 Z " fill="#D3CECD" transform="translate(268,182)"/>
<path d="M0 0 C0.33 0.66 0.66 1.32 1 2 C-0.25 4.5625 -0.25 4.5625 -2 7 C-2.99 7.33 -3.98 7.66 -5 8 C-3.62845496 5.04590299 -2.01136276 2.55991624 0 0 Z " fill="#D1CDCA" transform="translate(327,196)"/>
<path d="M0 0 C0 3.61537605 -0.89229241 5.11165997 -3 8 C-3.99 8 -4.98 8 -6 8 C-4.02 5.36 -2.04 2.72 0 0 Z " fill="#514C49" transform="translate(285,173)"/>
</svg>
